<?xml version="1.0" encoding="utf-8"?>
<!-- Generator: Adobe Illustrator 25.2.1, SVG Export Plug-In . SVG Version: 6.00 Build 0)  -->
<svg version="1.1" id="Livello_1" xmlns="http://www.w3.org/2000/svg" xmlns:xlink="http://www.w3.org/1999/xlink" x="0px" y="0px"
	 viewBox="0 0 259 259" style="enable-background:new 0 0 259 259;" xml:space="preserve">
<g id="K0cKjw_1_">
	<g>
		<path d="M130.3,40.2c4.9-10.1,11-18.1,18.5-24.5c37.8-32.1,91.2-3.2,96.3,52.3c1.9,20.7-2.4,39.6-10.7,57.5
			c-9.1,19.5-21.3,36-34,51.9c-17.6,22-37.2,41.4-56.4,61.3c-4.5,4.7-9.1,9.4-13.8,14.2c-3.2-3.3-6.4-6.5-9.5-9.8
			c-17.6-18.7-35.4-37.1-52.7-56.2c-13.4-14.9-25.6-31.2-35.9-49.4c-8.2-14.5-14.3-30.1-16.6-47.8C10.2,49.5,31.4,12,64.3,3.7
			c24.8-6.3,51.1,7.4,64.5,33.6C129.1,38.1,129.6,38.9,130.3,40.2z"/>
	</g>
</g>
</svg>
